<?xml version="1.0" encoding="utf-8" standalone="no"?>
<!DOCTYPE svg PUBLIC "-//W3C//DTD SVG 1.1//EN"
  "http://www.w3.org/Graphics/SVG/1.1/DTD/svg11.dtd">
<svg xmlns:xlink="http://www.w3.org/1999/xlink" width="212.4pt" height="424.8pt" viewBox="0 0 212.4 424.8" xmlns="http://www.w3.org/2000/svg" version="1.1">
 <metadata>
  <rdf:RDF xmlns:dc="http://purl.org/dc/elements/1.1/" xmlns:cc="http://creativecommons.org/ns#" xmlns:rdf="http://www.w3.org/1999/02/22-rdf-syntax-ns#">
   <cc:Work>
    <dc:type rdf:resource="http://purl.org/dc/dcmitype/StillImage"/>
    <dc:date>2024-04-05T22:22:25.263312</dc:date>
    <dc:format>image/svg+xml</dc:format>
    <dc:creator>
     <cc:Agent>
      <dc:title>Matplotlib v3.5.2, https://matplotlib.org/</dc:title>
     </cc:Agent>
    </dc:creator>
   </cc:Work>
  </rdf:RDF>
 </metadata>
 <defs>
  <style type="text/css">*{stroke-linejoin: round; stroke-linecap: butt}</style>
 </defs>
 <g id="figure_1">
  <g id="patch_1">
   <path d="M 0 424.8 
L 212.4 424.8 
L 212.4 0 
L 0 0 
z
" style="fill: #ffffff"/>
  </g>
  <g id="axes_1">
   <g id="patch_2">
    <path d="M 26.55 147.180706 
L 191.16 147.180706 
L 191.16 50.976 
L 26.55 50.976 
z
" style="fill: #ffffff"/>
   </g>
   <g id="matplotlib.axis_1">
    <g id="xtick_1">
     <g id="line2d_1">
      <defs>
       <path id="me132091af1" d="M 0 0 
L 0 3.5 
" style="stroke: #000000; stroke-width: 0.8"/>
      </defs>
      <g>
       <use xlink:href="#me132091af1" x="34.032273" y="147.180706" style="stroke: #000000; stroke-width: 0.8"/>
      </g>
     </g>
    </g>
    <g id="xtick_2">
     <g id="line2d_2">
      <g>
       <use xlink:href="#me132091af1" x="92.716765" y="147.180706" style="stroke: #000000; stroke-width: 0.8"/>
      </g>
     </g>
    </g>
    <g id="xtick_3">
     <g id="line2d_3">
      <g>
       <use xlink:href="#me132091af1" x="151.401257" y="147.180706" style="stroke: #000000; stroke-width: 0.8"/>
      </g>
     </g>
    </g>
   </g>
   <g id="matplotlib.axis_2">
    <g id="ytick_1">
     <g id="line2d_4">
      <defs>
       <path id="ma4e0e807b3" d="M 0 0 
L -3.5 0 
" style="stroke: #000000; stroke-width: 0.8"/>
      </defs>
      <g>
       <use xlink:href="#ma4e0e807b3" x="26.55" y="147.180706" style="stroke: #000000; stroke-width: 0.8"/>
      </g>
     </g>
     <g id="text_1">
      <text style="font: 10px 'sans-serif'; text-anchor: end" x="19.55" y="150.979925" transform="rotate(-0, 19.55, 150.979925)">-3</text>
     </g>
    </g>
    <g id="ytick_2">
     <g id="line2d_5">
      <g>
       <use xlink:href="#ma4e0e807b3" x="26.55" y="99.078353" style="stroke: #000000; stroke-width: 0.8"/>
      </g>
     </g>
     <g id="text_2">
      <text style="font: 10px 'sans-serif'; text-anchor: end" x="19.55" y="102.877572" transform="rotate(-0, 19.55, 102.877572)">0</text>
     </g>
    </g>
    <g id="ytick_3">
     <g id="line2d_6">
      <g>
       <use xlink:href="#ma4e0e807b3" x="26.55" y="50.976" style="stroke: #000000; stroke-width: 0.8"/>
      </g>
     </g>
     <g id="text_3">
      <text style="font: 10px 'sans-serif'; text-anchor: end" x="19.55" y="54.775219" transform="rotate(-0, 19.55, 54.775219)">3</text>
     </g>
    </g>
    <g id="text_4">
     <text style="font: 10px 'sans-serif'; text-anchor: middle" x="3.5" y="99.078353" transform="rotate(-90, 3.5, 99.078353)">Generated Sample</text>
    </g>
   </g>
   <g id="line2d_7">
    <path d="M 34.032273 91.201691 
L 34.619118 93.291653 
L 35.205963 106.577766 
L 35.792807 97.663735 
L 36.379652 84.269921 
L 36.966497 90.543192 
L 37.553342 110.066408 
L 38.140187 91.739323 
L 38.727032 102.494109 
L 39.313877 90.546464 
L 39.900722 103.517796 
L 40.487567 87.302298 
L 41.074412 93.775193 
L 42.248102 100.438638 
L 42.834947 88.033144 
L 43.421791 97.134076 
L 44.008636 100.087833 
L 44.595481 112.392501 
L 45.182326 92.923234 
L 45.769171 111.418916 
L 46.356016 90.003227 
L 47.529706 98.452472 
L 48.116551 101.42375 
L 48.703396 98.611146 
L 49.290241 104.641803 
L 49.877086 93.444794 
L 50.46393 107.077836 
L 51.050775 98.601088 
L 51.63762 100.128911 
L 52.224465 87.002835 
L 52.81131 105.435602 
L 53.398155 98.069773 
L 53.985 106.265655 
L 55.15869 99.135245 
L 55.745535 93.948131 
L 56.33238 100.328151 
L 56.919225 96.942958 
L 57.50607 97.587023 
L 58.092914 84.640491 
L 58.679759 89.719241 
L 59.266604 112.515389 
L 59.853449 112.917509 
L 60.440294 86.963256 
L 61.027139 96.070549 
L 61.613984 85.285779 
L 62.200829 107.369011 
L 62.787674 85.913122 
L 63.374519 96.484128 
L 63.961364 95.255594 
L 64.548209 100.319104 
L 65.135053 95.498039 
L 65.721898 91.761803 
L 66.308743 95.17629 
L 66.895588 89.039344 
L 68.069278 108.415701 
L 68.656123 99.828138 
L 69.242968 94.566259 
L 69.829813 103.387887 
L 70.416658 96.56212 
L 71.003503 100.157783 
L 71.590348 99.324917 
L 72.177193 108.449927 
L 72.764037 87.352689 
L 73.350882 104.569462 
L 73.937727 97.872089 
L 74.524572 110.0062 
L 75.111417 87.111183 
L 75.698262 89.965138 
L 76.285107 103.089146 
L 76.871952 91.58208 
L 77.458797 90.264377 
L 78.045642 96.226953 
L 78.632487 87.238051 
L 79.219332 87.155392 
L 79.806176 95.433583 
L 80.393021 93.262102 
L 80.979866 90.201858 
L 81.566711 101.713697 
L 82.153556 109.795229 
L 82.740401 105.050635 
L 83.327246 97.463105 
L 83.914091 104.504762 
L 84.500936 101.611653 
L 85.087781 102.234136 
L 85.674626 94.572767 
L 86.261471 103.643643 
L 86.848316 88.344964 
L 88.022005 106.742355 
L 88.60885 98.575678 
L 89.195695 104.363396 
L 89.78254 90.091176 
L 90.369385 92.669413 
L 90.95623 89.335589 
L 91.543075 99.899294 
L 92.12992 104.79875 
L 92.716765 106.249964 
L 93.30361 107.004497 
L 93.890455 105.124277 
L 94.477299 88.376677 
L 95.064144 102.605319 
L 95.650989 101.728766 
L 96.237834 105.747267 
L 96.824679 95.303677 
L 97.411524 107.864672 
L 97.998369 93.114083 
L 98.585214 98.174723 
L 99.172059 98.944676 
L 99.758904 99.081496 
L 100.345749 111.881417 
L 100.932594 110.117292 
L 101.519439 98.16165 
L 102.106283 104.644893 
L 102.693128 101.452706 
L 103.279973 90.961293 
L 103.866818 84.506783 
L 104.453663 107.388309 
L 105.040508 100.923645 
L 105.627353 89.207244 
L 106.214198 84.799627 
L 107.387888 110.524979 
L 107.974733 109.241355 
L 108.561578 97.661808 
L 109.148422 112.845709 
L 109.735267 91.521317 
L 110.322112 96.502412 
L 110.908957 103.858439 
L 111.495802 104.350618 
L 112.082647 112.406133 
L 112.669492 98.288403 
L 113.256337 110.745102 
L 113.843182 84.157597 
L 114.430027 87.677859 
L 115.016872 100.257623 
L 115.603717 84.104934 
L 116.190561 105.590079 
L 116.777406 93.748146 
L 117.364251 109.663066 
L 117.951096 86.228232 
L 118.537941 87.082519 
L 119.124786 84.352401 
L 119.711631 91.75608 
L 120.298476 91.074285 
L 120.885321 105.829537 
L 121.472166 107.299067 
L 122.059011 95.482354 
L 122.645856 90.014023 
L 123.232701 105.192711 
L 123.819545 108.901538 
L 124.40639 90.030628 
L 124.993235 90.299786 
L 125.58008 112.54755 
L 126.166925 93.851237 
L 126.75377 110.461186 
L 127.340615 102.035764 
L 127.92746 102.119795 
L 128.514305 89.486928 
L 129.10115 101.901884 
L 129.687995 85.258293 
L 130.27484 106.273932 
L 130.861684 91.765985 
L 131.448529 106.906731 
L 132.035374 105.163055 
L 132.622219 107.553571 
L 133.209064 100.775002 
L 133.795909 104.920834 
L 134.382754 84.578065 
L 134.969599 91.589616 
L 135.556444 100.300222 
L 136.143289 87.661667 
L 136.730134 87.895261 
L 137.316979 85.425106 
L 137.903824 94.310373 
L 138.490668 86.092881 
L 139.077513 95.762581 
L 139.664358 95.091434 
L 140.251203 90.608094 
L 140.838048 84.499802 
L 141.424893 98.021983 
L 142.011738 85.450452 
L 142.598583 104.977072 
L 143.185428 99.61143 
L 143.772273 85.196097 
L 144.359118 91.49345 
L 144.945963 87.138801 
L 145.532807 109.404689 
L 146.119652 93.765087 
L 146.706497 110.382661 
L 147.880187 84.856692 
L 148.467032 92.783632 
L 149.053877 108.010314 
L 149.640722 102.909513 
L 150.227567 94.338341 
L 150.814412 109.458094 
L 151.401257 93.898021 
L 151.988102 101.666665 
L 152.574947 85.453323 
L 153.161791 96.42959 
L 153.748636 103.14891 
L 154.335481 103.246002 
L 154.922326 97.769303 
L 155.509171 85.662324 
L 156.096016 105.161791 
L 156.682861 100.875594 
L 157.269706 99.479956 
L 157.856551 104.897511 
L 158.443396 89.169822 
L 159.030241 93.927189 
L 159.617086 103.611254 
L 160.20393 98.642659 
L 160.790775 100.001653 
L 161.37762 86.777717 
L 161.964465 94.837862 
L 162.55131 104.698524 
L 163.138155 99.564311 
L 163.725 85.593189 
L 164.311845 109.315307 
L 164.89869 103.443294 
L 165.485535 102.80242 
L 166.07238 112.275357 
L 166.659225 92.501935 
L 167.24607 110.823212 
L 167.832914 85.964924 
L 168.419759 88.654369 
L 169.006604 93.056204 
L 169.593449 109.172575 
L 170.180294 89.605924 
L 170.767139 103.010214 
L 171.353984 93.110325 
L 171.940829 96.000548 
L 172.527674 91.139514 
L 173.114519 95.047286 
L 173.701364 103.824263 
L 174.288209 84.608321 
L 174.875053 90.766948 
L 175.461898 90.416594 
L 176.048743 92.736442 
L 176.635588 100.00234 
L 177.809278 88.485115 
L 178.396123 92.291951 
L 178.982968 96.902431 
L 179.569813 99.771486 
L 180.156658 90.03289 
L 180.743503 106.771149 
L 181.330348 103.325104 
L 181.917193 98.302906 
L 182.504037 90.233532 
L 183.090882 90.308941 
L 183.677727 98.403038 
L 183.677727 98.403038 
" clip-path="url(#p4ff223ee6f)" style="fill: none; stroke: #1f77b4; stroke-opacity: 0.5; stroke-linecap: square"/>
   </g>
   <g id="patch_3">
    <path d="M 26.55 147.180706 
L 26.55 50.976 
" style="fill: none; stroke: #000000; stroke-width: 0.8; stroke-linejoin: miter; stroke-linecap: square"/>
   </g>
   <g id="patch_4">
    <path d="M 26.55 147.180706 
L 191.16 147.180706 
" style="fill: none; stroke: #000000; stroke-width: 0.8; stroke-linejoin: miter; stroke-linecap: square"/>
   </g>
  </g>
  <g id="axes_2">
   <g id="patch_5">
    <path d="M 26.55 262.626353 
L 191.16 262.626353 
L 191.16 166.421647 
L 26.55 166.421647 
z
" style="fill: #ffffff"/>
   </g>
   <g id="matplotlib.axis_3">
    <g id="xtick_4">
     <g id="line2d_8">
      <g>
       <use xlink:href="#me132091af1" x="34.032273" y="262.626353" style="stroke: #000000; stroke-width: 0.8"/>
      </g>
     </g>
    </g>
    <g id="xtick_5">
     <g id="line2d_9">
      <g>
       <use xlink:href="#me132091af1" x="92.716765" y="262.626353" style="stroke: #000000; stroke-width: 0.8"/>
      </g>
     </g>
    </g>
    <g id="xtick_6">
     <g id="line2d_10">
      <g>
       <use xlink:href="#me132091af1" x="151.401257" y="262.626353" style="stroke: #000000; stroke-width: 0.8"/>
      </g>
     </g>
    </g>
   </g>
   <g id="matplotlib.axis_4">
    <g id="ytick_4">
     <g id="line2d_11">
      <g>
       <use xlink:href="#ma4e0e807b3" x="26.55" y="262.626353" style="stroke: #000000; stroke-width: 0.8"/>
      </g>
     </g>
     <g id="text_5">
      <text style="font: 10px 'sans-serif'; text-anchor: end" x="19.55" y="266.425572" transform="rotate(-0, 19.55, 266.425572)">-3</text>
     </g>
    </g>
    <g id="ytick_5">
     <g id="line2d_12">
      <g>
       <use xlink:href="#ma4e0e807b3" x="26.55" y="214.524" style="stroke: #000000; stroke-width: 0.8"/>
      </g>
     </g>
     <g id="text_6">
      <text style="font: 10px 'sans-serif'; text-anchor: end" x="19.55" y="218.323219" transform="rotate(-0, 19.55, 218.323219)">0</text>
     </g>
    </g>
    <g id="ytick_6">
     <g id="line2d_13">
      <g>
       <use xlink:href="#ma4e0e807b3" x="26.55" y="166.421647" style="stroke: #000000; stroke-width: 0.8"/>
      </g>
     </g>
     <g id="text_7">
      <text style="font: 10px 'sans-serif'; text-anchor: end" x="19.55" y="170.220866" transform="rotate(-0, 19.55, 170.220866)">3</text>
     </g>
    </g>
    <g id="text_8">
     <text style="font: 10px 'sans-serif'; text-anchor: middle" x="3.5" y="214.524" transform="rotate(-90, 3.5, 214.524)">Content</text>
    </g>
   </g>
   <g id="line2d_14">
    <path d="M 34.032273 215.223678 
L 34.619118 207.117314 
L 35.205963 211.839847 
L 35.792807 209.481842 
L 36.379652 210.908117 
L 36.966497 205.909065 
L 38.140187 211.418252 
L 38.727032 211.680583 
L 39.313877 214.822442 
L 39.900722 214.230153 
L 40.487567 216.86432 
L 41.074412 213.614725 
L 41.661257 213.987406 
L 42.248102 212.610374 
L 42.834947 210.461421 
L 43.421791 216.355688 
L 44.008636 220.190266 
L 44.595481 218.788281 
L 45.182326 209.891703 
L 45.769171 207.60281 
L 46.356016 206.900812 
L 46.942861 209.396311 
L 47.529706 209.333396 
L 48.116551 206.980839 
L 48.703396 209.154061 
L 49.290241 212.047279 
L 49.877086 216.49038 
L 50.46393 215.059801 
L 51.050775 218.668043 
L 51.63762 218.364437 
L 52.224465 217.612761 
L 52.81131 214.336289 
L 53.398155 217.248052 
L 53.985 217.394768 
L 54.571845 218.961407 
L 55.15869 220.898024 
L 55.745535 221.93355 
L 56.33238 224.087063 
L 56.919225 218.77492 
L 57.50607 216.764921 
L 58.092914 216.515289 
L 58.679759 218.447211 
L 59.266604 211.10068 
L 59.853449 214.524829 
L 60.440294 214.609074 
L 61.027139 215.553709 
L 62.200829 215.003191 
L 62.787674 211.951343 
L 63.374519 214.710827 
L 63.961364 215.741002 
L 64.548209 213.319953 
L 65.135053 209.644995 
L 65.721898 209.393347 
L 66.308743 214.699157 
L 66.895588 216.208787 
L 67.482433 211.505259 
L 68.069278 209.622185 
L 68.656123 205.172519 
L 69.242968 207.36817 
L 69.829813 210.282824 
L 70.416658 214.455666 
L 71.003503 212.952562 
L 72.177193 209.171059 
L 72.764037 213.623892 
L 73.350882 209.93349 
L 73.937727 210.9211 
L 74.524572 210.04859 
L 75.111417 211.476815 
L 75.698262 207.439858 
L 76.285107 209.483525 
L 76.871952 207.212222 
L 77.458797 205.628067 
L 78.045642 213.667242 
L 78.632487 209.982653 
L 79.219332 210.551844 
L 79.806176 210.546644 
L 80.393021 218.483453 
L 80.979866 213.009838 
L 81.566711 219.875179 
L 82.153556 220.777437 
L 82.740401 220.737952 
L 83.327246 217.512418 
L 83.914091 216.409612 
L 84.500936 220.014999 
L 85.087781 222.688132 
L 86.848316 211.109494 
L 87.43516 211.240808 
L 88.022005 216.779374 
L 88.60885 215.503569 
L 89.195695 218.878584 
L 89.78254 211.588822 
L 90.369385 209.27117 
L 90.95623 210.476379 
L 91.543075 212.414026 
L 92.12992 212.518382 
L 92.716765 210.861724 
L 93.30361 213.54033 
L 93.890455 219.862437 
L 94.477299 217.565034 
L 95.064144 219.870802 
L 95.650989 217.214109 
L 96.237834 217.487946 
L 96.824679 221.059436 
L 97.411524 218.097027 
L 97.998369 217.609789 
L 98.585214 210.986655 
L 99.172059 214.216252 
L 99.758904 216.5582 
L 100.345749 217.753108 
L 100.932594 217.528226 
L 101.519439 221.511046 
L 102.106283 216.904371 
L 102.693128 214.769076 
L 103.279973 213.757726 
L 103.866818 212.246527 
L 104.453663 212.953559 
L 105.040508 211.447351 
L 105.627353 214.875035 
L 106.801043 216.864335 
L 107.387888 220.681211 
L 107.974733 213.951249 
L 108.561578 216.112329 
L 109.148422 218.892807 
L 109.735267 221.100576 
L 110.322112 216.232115 
L 110.908957 219.639319 
L 111.495802 217.683602 
L 112.669492 216.042716 
L 113.256337 212.181467 
L 113.843182 211.321966 
L 114.430027 209.872406 
L 115.016872 210.045405 
L 115.603717 213.747915 
L 116.190561 208.70151 
L 116.777406 212.114749 
L 117.364251 213.955822 
L 117.951096 211.243829 
L 118.537941 214.11267 
L 119.124786 215.591599 
L 119.711631 214.333738 
L 120.298476 210.4458 
L 120.885321 209.57779 
L 121.472166 212.128902 
L 122.059011 211.244262 
L 122.645856 210.953868 
L 123.232701 207.062847 
L 123.819545 202.377826 
L 124.40639 207.989713 
L 124.993235 202.673681 
L 125.58008 207.033903 
L 126.75377 218.476638 
L 127.340615 215.019123 
L 127.92746 209.051917 
L 128.514305 206.722309 
L 129.10115 206.777007 
L 129.687995 209.033913 
L 130.27484 213.223514 
L 130.861684 211.534919 
L 131.448529 213.687429 
L 132.035374 207.052956 
L 132.622219 207.15077 
L 133.209064 208.586708 
L 133.795909 210.570584 
L 134.382754 213.595569 
L 134.969599 210.263359 
L 135.556444 208.639232 
L 136.143289 217.012382 
L 136.730134 210.310394 
L 137.316979 211.975475 
L 137.903824 211.251499 
L 138.490668 208.597195 
L 139.077513 207.570766 
L 139.664358 212.783457 
L 140.251203 214.036994 
L 140.838048 216.313582 
L 141.424893 214.45658 
L 142.011738 215.599778 
L 142.598583 210.972734 
L 143.185428 216.65745 
L 143.772273 208.12766 
L 144.359118 212.073645 
L 144.945963 213.891192 
L 145.532807 214.000798 
L 146.119652 213.044023 
L 146.706497 212.466969 
L 147.293342 212.521059 
L 147.880187 220.011195 
L 148.467032 224.382222 
L 149.053877 221.118668 
L 149.640722 220.398867 
L 150.227567 221.050694 
L 150.814412 221.226735 
L 151.401257 220.497414 
L 151.988102 221.47092 
L 152.574947 223.87521 
L 153.161791 222.846296 
L 153.748636 212.8531 
L 154.335481 210.42691 
L 154.922326 206.876151 
L 155.509171 211.051537 
L 156.096016 213.291103 
L 156.682861 213.48097 
L 157.269706 206.653421 
L 157.856551 211.338566 
L 158.443396 212.66439 
L 159.030241 212.40665 
L 159.617086 211.634075 
L 160.20393 220.617972 
L 160.790775 215.342791 
L 161.37762 218.694765 
L 161.964465 216.158809 
L 162.55131 214.726049 
L 163.138155 220.607845 
L 163.725 221.623626 
L 164.311845 218.548498 
L 164.89869 221.861213 
L 165.485535 221.938567 
L 166.07238 228.938684 
L 166.659225 221.398023 
L 167.24607 221.852614 
L 167.832914 214.402877 
L 168.419759 213.315137 
L 169.006604 210.760633 
L 169.593449 207.200753 
L 170.180294 201.857559 
L 170.767139 201.488186 
L 171.353984 200.357134 
L 171.940829 203.818503 
L 172.527674 210.988511 
L 173.114519 208.1094 
L 173.701364 206.932955 
L 174.288209 215.986262 
L 175.461898 211.445053 
L 176.048743 215.971835 
L 176.635588 218.854459 
L 177.222433 222.990264 
L 177.809278 223.075488 
L 178.396123 213.088063 
L 178.982968 214.804305 
L 179.569813 220.099484 
L 180.156658 213.926807 
L 180.743503 212.963143 
L 181.330348 214.93435 
L 181.917193 222.094824 
L 182.504037 221.532007 
L 183.090882 220.418185 
L 183.677727 216.591433 
L 183.677727 216.591433 
" clip-path="url(#pb3f1a4b826)" style="fill: none; stroke: #ff7f0e; stroke-opacity: 0.5; stroke-linecap: square"/>
   </g>
   <g id="patch_6">
    <path d="M 26.55 262.626353 
L 26.55 166.421647 
" style="fill: none; stroke: #000000; stroke-width: 0.8; stroke-linejoin: miter; stroke-linecap: square"/>
   </g>
   <g id="patch_7">
    <path d="M 26.55 262.626353 
L 191.16 262.626353 
" style="fill: none; stroke: #000000; stroke-width: 0.8; stroke-linejoin: miter; stroke-linecap: square"/>
   </g>
  </g>
  <g id="axes_3">
   <g id="patch_8">
    <path d="M 26.55 378.072 
L 191.16 378.072 
L 191.16 281.867294 
L 26.55 281.867294 
z
" style="fill: #ffffff"/>
   </g>
   <g id="matplotlib.axis_5">
    <g id="xtick_7">
     <g id="line2d_15">
      <g>
       <use xlink:href="#me132091af1" x="34.032273" y="378.072" style="stroke: #000000; stroke-width: 0.8"/>
      </g>
     </g>
     <g id="text_9">
      <text style="font: 10px 'sans-serif'; text-anchor: middle" x="34.032273" y="392.670438" transform="rotate(-0, 34.032273, 392.670438)">0</text>
     </g>
    </g>
    <g id="xtick_8">
     <g id="line2d_16">
      <g>
       <use xlink:href="#me132091af1" x="92.716765" y="378.072" style="stroke: #000000; stroke-width: 0.8"/>
      </g>
     </g>
     <g id="text_10">
      <text style="font: 10px 'sans-serif'; text-anchor: middle" x="92.716765" y="392.670438" transform="rotate(-0, 92.716765, 392.670438)">100</text>
     </g>
    </g>
    <g id="xtick_9">
     <g id="line2d_17">
      <g>
       <use xlink:href="#me132091af1" x="151.401257" y="378.072" style="stroke: #000000; stroke-width: 0.8"/>
      </g>
     </g>
     <g id="text_11">
      <text style="font: 10px 'sans-serif'; text-anchor: middle" x="151.401257" y="392.670438" transform="rotate(-0, 151.401257, 392.670438)">200</text>
     </g>
    </g>
   </g>
   <g id="matplotlib.axis_6">
    <g id="ytick_7">
     <g id="line2d_18">
      <g>
       <use xlink:href="#ma4e0e807b3" x="26.55" y="378.072" style="stroke: #000000; stroke-width: 0.8"/>
      </g>
     </g>
     <g id="text_12">
      <text style="font: 10px 'sans-serif'; text-anchor: end" x="19.55" y="381.871219" transform="rotate(-0, 19.55, 381.871219)">-3</text>
     </g>
    </g>
    <g id="ytick_8">
     <g id="line2d_19">
      <g>
       <use xlink:href="#ma4e0e807b3" x="26.55" y="329.969647" style="stroke: #000000; stroke-width: 0.8"/>
      </g>
     </g>
     <g id="text_13">
      <text style="font: 10px 'sans-serif'; text-anchor: end" x="19.55" y="333.768866" transform="rotate(-0, 19.55, 333.768866)">0</text>
     </g>
    </g>
    <g id="ytick_9">
     <g id="line2d_20">
      <g>
       <use xlink:href="#ma4e0e807b3" x="26.55" y="281.867294" style="stroke: #000000; stroke-width: 0.8"/>
      </g>
     </g>
     <g id="text_14">
      <text style="font: 10px 'sans-serif'; text-anchor: end" x="19.55" y="285.666513" transform="rotate(-0, 19.55, 285.666513)">3</text>
     </g>
    </g>
    <g id="text_15">
     <text style="font: 10px 'sans-serif'; text-anchor: middle" x="3.5" y="329.969647" transform="rotate(-90, 3.5, 329.969647)">Style</text>
    </g>
   </g>
   <g id="line2d_21">
    <path d="M 34.032273 325.283234 
L 34.619118 325.24293 
L 35.792807 322.753062 
L 36.379652 322.999363 
L 36.966497 322.466459 
L 37.553342 323.138186 
L 39.313877 324.076364 
L 41.074412 324.792873 
L 42.248102 324.972 
L 42.834947 325.198148 
L 43.421791 325.238451 
L 44.008636 325.484751 
L 45.182326 325.578793 
L 48.116551 325.894505 
L 48.703396 325.869875 
L 51.050775 325.375036 
L 51.63762 325.377275 
L 52.224465 325.153366 
L 64.548209 324.727939 
L 65.721898 324.67868 
L 66.895588 324.611507 
L 80.393021 324.125624 
L 82.153556 323.805434 
L 83.914091 323.765131 
L 85.674626 322.999363 
L 86.261471 323.00608 
L 86.848316 322.871735 
L 88.022005 323.044144 
L 88.60885 323.402399 
L 89.195695 324.208471 
L 89.78254 324.633897 
L 92.12992 325.108585 
L 93.30361 325.153366 
L 93.890455 325.417579 
L 94.477299 325.999742 
L 95.064144 326.357996 
L 95.650989 326.00422 
L 96.237834 325.787028 
L 99.172059 325.800463 
L 99.758904 325.914656 
L 101.519439 325.894505 
L 102.693128 325.800463 
L 103.279973 326.608774 
L 104.453663 329.226269 
L 105.040508 329.674087 
L 105.627353 329.969647 
L 107.387888 328.668736 
L 110.322112 327.795491 
L 112.082647 327.549192 
L 112.669492 327.499932 
L 113.843182 327.573822 
L 115.016872 327.439476 
L 115.603717 326.787901 
L 116.190561 325.534011 
L 117.364251 321.208091 
L 117.951096 320.899097 
L 119.124786 323.362095 
L 119.711631 323.889401 
L 120.298476 324.096516 
L 120.885321 320.406498 
L 121.472166 319.41682 
L 122.059011 320.829685 
L 122.645856 321.501412 
L 123.232701 322.419438 
L 124.40639 323.52107 
L 124.993235 323.20312 
L 125.58008 322.399287 
L 126.75377 324.347294 
L 127.340615 324.880197 
L 127.92746 325.088433 
L 129.10115 325.265321 
L 130.27484 325.4646 
L 130.861684 325.4646 
L 131.448529 325.686269 
L 132.035374 325.4646 
L 133.795909 325.088433 
L 134.969599 324.813025 
L 136.143289 324.67868 
L 140.251203 324.611507 
L 143.185428 324.006953 
L 145.532807 324.141298 
L 150.814412 324.215188 
L 151.988102 324.215188 
L 159.617086 324.141298 
L 160.20393 324.096516 
L 161.964465 323.671089 
L 164.311845 323.563613 
L 165.485535 323.628546 
L 176.048743 323.879324 
L 177.222433 323.909552 
L 178.982968 323.805434 
L 183.677727 323.744979 
L 183.677727 323.744979 
" clip-path="url(#pfcb252a97a)" style="fill: none; stroke: #2ca02c; stroke-opacity: 0.5; stroke-linecap: square"/>
   </g>
   <g id="patch_9">
    <path d="M 26.55 378.072 
L 26.55 281.867294 
" style="fill: none; stroke: #000000; stroke-width: 0.8; stroke-linejoin: miter; stroke-linecap: square"/>
   </g>
   <g id="patch_10">
    <path d="M 26.55 378.072 
L 191.16 378.072 
" style="fill: none; stroke: #000000; stroke-width: 0.8; stroke-linejoin: miter; stroke-linecap: square"/>
   </g>
  </g>
 </g>
 <defs>
  <clipPath id="p4ff223ee6f">
   <rect x="26.55" y="50.976" width="164.61" height="96.204706"/>
  </clipPath>
  <clipPath id="pb3f1a4b826">
   <rect x="26.55" y="166.421647" width="164.61" height="96.204706"/>
  </clipPath>
  <clipPath id="pfcb252a97a">
   <rect x="26.55" y="281.867294" width="164.61" height="96.204706"/>
  </clipPath>
 </defs>
</svg>
